# AST/ASF file generated using VICON BodyLanguage
# -----------------------------------------------
:version 1.10
:name VICON
:units
  mass 1.0
  length 0.45
  angle deg
:documentation
   .ast/.asf automatically generated from VICON data using
   VICON BodyBuilder and BodyLanguage model FoxedUp or BRILLIANT.MOD
:root
   order TX TY TZ RX RY RZ
   axis XYZ
   position 0 0 0  
   orientation 0 0 0 
:bonedata
  begin
     id 1 
     name lhipjoint
     direction 0.623529 -0.717805 0.309788 
     length 2.23224 
     axis 0 0 0  XYZ
  end
  begin
     id 2 
     name lfemur
     direction 0.34202 -0.939693 0  
     length 7.11402  
     axis 0 0 20  XYZ
    dof rx ry rz
    limits (-160.0 20.0)
           (-70.0 70.0)
           (-60.0 70.0)
  end
  begin
     id 3 
     name ltibia
     direction 0.34202 -0.939693 0   
     length 6.78496   
     axis 0 0 20   XYZ
    dof rx
    limits (-10.0 170.0)
  end
  begin
     id 4 
     name lfoot
     direction 0.125078 -0.343648 0.930732   
     length 1.84054   
     axis -90 7.62852e-016 20   XYZ
    dof rx rz
    limits (-45.0 90.0)
           (-70.0 20.0)
  end
  begin
     id 5 
     name ltoes
     direction 1.53565e-011 -4.21893e-011 1   
     length 0.916474   
     axis -90 7.62852e-016 20   XYZ
    dof rx
    limits (-90.0 20.0)
  end
  begin
     id 6 
     name rhipjoint
     direction -0.564688 -0.757748 0.327026   
     length 2.11457  
     axis 0 0 0  XYZ 
  end
  begin
     id 7 
     name rfemur
     direction -0.34202 -0.939693 0   
     length 7.14609   
     axis 0 0 -20   XYZ
    dof rx ry rz
    limits (-160.0 20.0)
           (-70.0 70.0)
           (-70.0 60.0)
  end
  begin
     id 8 
     name rtibia
     direction -0.34202 -0.939693 0   
     length 6.78101   
     axis 0 0 -20   XYZ
    dof rx
    limits (-10.0 170.0)
 end
 begin
     id 9 
     name rfoot
     direction -0.0992671 -0.272734 0.956955   
     length 1.96168  
     axis -90 -7.62852e-016 -20   XYZ
    dof rx rz
    limits (-45.0 90.0)
           (-20.0 70.0)
  end
  begin
     id 10 
     name rtoes
     direction -1.5356e-011 -4.21891e-011 1   
     length 0.982933   
     axis -90 -7.62852e-016 -20   XYZ
    dof rx
    limits (-90.0 20.0)
  end
  begin
     id 11 
     name lowerback
     direction -0.00596953 0.998668 0.0512524   
     length 1.87557   
     axis 0 0 0   XYZ
    dof rx ry rz
    limits (-20.0 45.0)
           (-30.0 30.0)
           (-30.0 30.0)
  end
  begin
     id 12 
     name upperback
     direction 0.00584879 0.999652 0.0257308   
     length 1.87883   
     axis 0 0 0   XYZ
    dof rx ry rz
    limits (-20.0 45.0)
           (-30.0 30.0)
           (-30.0 30.0)
  end
  begin
     id 13 
     name thorax
     direction 0.010104 0.999947 0.00178881   
     length 1.87779   
     axis 0 0 0   XYZ
    dof rx ry rz
    limits (-20.0 45.0)
           (-30.0 30.0)
           (-30.0 30.0)
  end
  begin
     id 14 
     name lowerneck
     direction 0.0120771 0.995934 -0.0892773   
     length 1.40897   
     axis 0 0 0   XYZ
    dof rx ry rz
    limits (-20.0 45.0)
           (-30.0 30.0)
           (-30.0 30.0)
  end
  begin
     id 15 
     name upperneck
     direction -0.030568 0.999465 -0.0116366   
     length 1.38661   
     axis 0 0 0   XYZ
    dof rx ry rz
    limits (-20.0 45.0)
           (-30.0 30.0)
           (-30.0 30.0)
  end
  begin
     id 16
     name head
     direction -0.0170715 0.999854 -0.00104426  
     length 1.47052  
     axis 0 0 0   XYZ
    dof rx ry rz
    limits (-20.0 45.0)
           (-30.0 30.0)
           (-30.0 30.0)
  end
  begin
     id 17 
     name lclavicle
     direction 0.977763 0.206143 0.038532  
     length 3.02424  
     axis 0 0 0   XYZ
    dof ry rz
    limits (-20.0 10.0)
           (0.0 20.0)
  end
  begin
     id 18 
     name lhumerus
     direction 1 -4.48965e-011 -2.62654e-027   
     length 4.68382   
     axis 180 -30 -90   XYZ
    dof rx ry rz
    limits (-60.0 90.0)
           (-90.0 90.0)
           (-90.0 90.0)
  end
  begin
     id 19
     name lradius
     direction 1 -4.48973e-011 -1.54954e-027   
     length 2.98124   
     axis 180 -30 -90   XYZ
    dof rx
    limits (-10.0 170.0)
  end
  begin
     id 20
     name lwrist
     direction 1 -4.48959e-011 7.20928e-028   
     length 1.49062   
     axis -5.52449e-016 90 90   XYZ
    dof ry
    limits (-180.0 0.0)
 end
  begin
     id 21 
     name lhand
     direction 1 -4.48971e-011 1.44186e-027   
     length 0.707595   
     axis -9.20027e-016 90 90   XYZ
    dof rx rz
    limits (-90.0 90.0)
           (-45.0 45.0)
  end
  begin
     id 22 
     name lfingers
     direction 1 -4.48985e-011 2.88371e-027   
     length 0.570481   
     axis -1.84005e-015 90 90   XYZ
    dof rx
    limits (0.0 90.0)
  end
  begin
     id 23
     name lthumb
     direction 0.707107 -6.34929e-011 0.707107   
     length 0.819101   
     axis -90 45 2.85299e-015   XYZ
    dof rx rz
    limits (-45.0 45.0)
           (-45.0 45.0)
  end
  begin
     id 24 
     name rclavicle
     direction -0.958661 0.284411 -0.00895327   
     length 3.11921  
     axis 0 0 0   XYZ 
    dof ry rz
    limits (-10.0 20.0)
           (-20.0 0.0)
  end
  begin
     id 25 
     name rhumerus
     direction -1 -4.48963e-011 -4.22193e-027  
     length 4.75876   
     axis 180 30 90   XYZ
    dof rx ry rz
    limits (-90.0 60.0)
           (-90.0 90.0)
           (-90.0 90.0)
  end
  begin
     id 26 
     name rradius
     direction -1 -4.48968e-011 -1.07616e-027   
     length 2.93293   
     axis 180 30 90   XYZ
    dof rx
    limits (-10.0 170.0)
  end
  begin
     id 27 
     name rwrist
     direction -1 -4.48965e-011 7.20928e-028   
     length 1.46647   
     axis -5.52449e-016 -90 -90   XYZ
    dof ry
    limits (-180.0 0.0)
  end
  begin
     id 28
     name rhand
     direction -1 -4.48971e-011 1.44186e-027   
     length 0.831748   
     axis -9.20027e-016 -90 -90   XYZ
    dof rx rz
    limits (-90.0 90.0)
           (-45.0 45.0)
  end
  begin
     id 29
     name rfingers
     direction -1 -4.48961e-011 2.88371e-027   
     length 0.670577   
     axis -1.84005e-015 -90 -90   XYZ
    dof rx
    limits (0.0 90.0)
  end
  begin
     id 30
     name rthumb
     direction -0.707107 -6.34929e-011 0.707107   
     length 0.962818   
     axis -90 -45 -2.85299e-015   XYZ
    dof rx rz
    limits (-45.0 45.0)
           (-45.0 45.0)
  end
:hierarchy
  begin
    root lhipjoint rhipjoint lowerback
    lhipjoint lfemur
    lfemur ltibia
    ltibia lfoot
    lfoot ltoes
    rhipjoint rfemur
    rfemur rtibia
    rtibia rfoot
    rfoot rtoes
    lowerback upperback
    upperback thorax
    thorax lowerneck lclavicle rclavicle
    lowerneck upperneck
    upperneck head
    lclavicle lhumerus
    lhumerus lradius
    lradius lwrist
    lwrist lhand lthumb
    lhand lfingers
    rclavicle rhumerus
    rhumerus rradius
    rradius rwrist
    rwrist rhand rthumb
    rhand rfingers
  end

#!OML:ASF E:\id_vita\Project 1\Capture day 1\Session 1\Female.ASF
:FULLY-SPECIFIED
:DEGREES
612
root -14.4383 13.7763 -7.70735 -323.196 -48.7052 -11.0223
lowerback 13.7694 -5.10595 -2.77664
upperback 4.58527 -7.04907 9.03551
thorax -1.25228 -3.80222 12.3624
lowerneck -9.83228 -4.15706 -10.2522
upperneck -23.8892 -3.2421 19.518
head -4.79674 -2.45489 8.26676
rclavicle 9.89948e-014 -1.98785e-015
rhumerus 20.8014 8.58632 -95.0433
rradius 80.764
rwrist -26.5527
rhand -35.7252 -11.2511
rfingers 7.12502
rthumb -8.84465 -41.0458
lclavicle 9.89948e-014 -1.98785e-015
lhumerus 57.6318 -27.3291 97.8474
lradius 26.0512
lwrist 5.35189
lhand 1.52816 55.9605
lfingers 7.12502
lthumb 27.0533 84.0426
rfemur -78.4487 -11.8237 30.8857
rtibia 44.635
rfoot 10.9415 -1.13425
rtoes -16.8432
lfemur -73.5584 12.0101 -11.4718
ltibia 91.7379
lfoot -16.9162 15.138
ltoes 0.182711
613
root -14.3943 13.7805 -7.69578 -323.23 -48.671 -11.1165
lowerback 14.0595 -5.39 -2.78304
upperback 4.30795 -7.3967 8.89319
thorax -1.64596 -3.9413 12.3021
lowerneck -8.69125 -3.68151 -9.41639
upperneck -24.0093 -2.70075 19.1577
head -5.14237 -2.27891 8.03661
rclavicle -6.12257e-014 7.51406e-014
rhumerus 20.09 9.07499 -95.7981
rradius 80.7509
rwrist -26.3201
rhand -35.5578 -11.1298
rfingers 7.12502
rthumb -8.68307 -40.9312
lclavicle -6.12257e-014 7.51406e-014
lhumerus 56.9657 -26.6256 97.6594
lradius 26.0493
lwrist 5.17143
lhand -2.55125 52.3532
lfingers 7.12502
lthumb 23.1446 80.9828
rfemur -78.1718 -11.7567 30.5015
rtibia 44.3324
rfoot 11.3833 -1.69217
rtoes -14.82
lfemur -73.6569 11.5719 -11.1564
ltibia 91.141
lfoot -17.3584 13.466
ltoes -1.01501
614
root -14.3442 13.7853 -7.67905 -323.228 -48.7231 -11.0221
lowerback 14.1048 -5.46769 -2.70707
upperback 4.05265 -7.46655 8.78549
thorax -1.95551 -3.94427 12.1691
lowerneck -7.17488 -3.4682 -9.0367
upperneck -24.709 -2.44273 18.9157
head -5.67641 -2.24781 7.96804
rclavicle 9.02482e-014 -5.20816e-014
rhumerus 19.6851 9.02907 -96.096
rradius 80.737
rwrist -26.249
rhand -35.4311 -11.1261
rfingers 7.12502
rthumb -8.56083 -40.9325
lclavicle 9.02482e-014 -5.20816e-014
lhumerus 56.603 -26.5307 97.6689
lradius 25.953
lwrist 5.12675
lhand 0.728123 55.1124
lfingers 7.12502
lthumb 26.2876 83.3111
rfemur -78.1441 -11.7456 30.0605
rtibia 44.0568
rfoot 11.6545 -1.70967
rtoes -14.0787
lfemur -73.9228 11.0594 -11.0071
ltibia 90.4961
lfoot -18.3126 11.7684
ltoes -2.43306
615
root -14.3036 13.7759 -7.66097 -323.241 -48.8065 -10.8264
lowerback 13.9721 -5.4647 -2.68648
upperback 3.89235 -7.44895 8.6949
thorax -2.07703 -3.91785 12.0455
lowerneck -7.04027 -3.2936 -8.49823
upperneck -24.3584 -2.30985 18.344
head -5.64254 -2.17004 7.65001
rclavicle 1.30403e-013 -7.35503e-014
rhumerus 19.5198 8.86664 -96.1808
rradius 80.7001
rwrist -26.2088
rhand -35.4004 -10.9929
rfingers 7.12502
rthumb -8.53117 -40.8006
lclavicle 1.30403e-013 -7.35503e-014
lhumerus 56.4117 -26.652 97.7185
lradius 25.8772
lwrist 5.23335
lhand -5.61174 49.0321
lfingers 7.12502
lthumb 20.2056 78.0013
rfemur -78.2246 -11.7505 29.7328
rtibia 43.7503
rfoot 11.7043 -1.35655
rtoes -15.0388
lfemur -74.338 10.6225 -10.9868
ltibia 89.8972
lfoot -19.3946 10.1592
ltoes -2.5562
616
root -14.2641 13.7691 -7.64497 -323.393 -48.9696 -10.5763
lowerback 13.957 -5.47715 -2.93457
upperback 4.08344 -7.51516 8.71225
thorax -1.81221 -3.97603 12.1999
lowerneck -7.95831 -3.30133 -8.78857
upperneck -24.1574 -2.27583 18.6026
head -5.41315 -2.1144 7.76101
rclavicle 7.87187e-014 -5.52621e-014
rhumerus 20.1029 9.1626 -96.0807
rradius 80.6245
rwrist -26.2195
rhand -35.3843 -11.1111
rfingers 7.12502
rthumb -8.51562 -40.9194
lclavicle 7.87187e-014 -5.52621e-014
lhumerus 57.0092 -26.4842 97.3475
lradius 25.8855
lwrist 5.41499
lhand -7.98789 46.4064
lfingers 7.12502
lthumb 17.9205 75.6007
rfemur -78.1745 -11.6784 29.1345
rtibia 43.4035
rfoot 11.869 -1.28858
rtoes -15.0031
lfemur -74.5913 10.1906 -11.0709
ltibia 89.2878
lfoot -20.1748 9.17391
ltoes -2.18316
617
root -14.2187 13.7814 -7.63014 -323.535 -49.1256 -10.3803
lowerback 13.8277 -5.23949 -3.11865
upperback 4.28682 -7.24456 8.85074
thorax -1.54114 -3.86924 12.4039
lowerneck -9.03897 -3.91667 -9.76541
upperneck -23.7336 -3.02521 19.0891
head -4.9436 -2.37644 8.04288
rclavicle -1.28415e-013 8.70677e-014
rhumerus 20.7898 8.86585 -95.4434
rradius 80.6535
rwrist -26.4328
rhand -35.4137 -11.4504
rfingers 7.12502
rthumb -8.54401 -41.2576
lclavicle -1.28415e-013 8.70677e-014
lhumerus 57.6516 -26.9167 97.423
lradius 25.8715
lwrist 5.39943
lhand -5.41927 49.2011
lfingers 7.12502
lthumb 20.3905 78.1506
rfemur -77.9872 -11.5322 28.3283
rtibia 42.995
rfoot 12.4294 -1.98835
rtoes -12.4419
lfemur -74.7109 9.68156 -11.0998
ltibia 88.5959
lfoot -20.7258 8.46424
ltoes -4.04614
618
root -14.169 13.7874 -7.61333 -323.42 -49.1236 -10.4803
lowerback 13.7875 -5.35054 -2.97727
upperback 4.01974 -7.35237 8.76888
thorax -1.81256 -3.8929 12.2538
lowerneck -8.27953 -3.55378 -9.50805
upperneck -23.5078 -2.57832 18.9095
head -5.07947 -2.17161 7.94573
rclavicle 1.68172e-013 -8.82604e-014
rhumerus 20.2309 8.95866 -95.7182
rradius 80.6802
rwrist -26.6173
rhand -35.507 -11.3526
rfingers 7.12502
rthumb -8.63408 -41.156
lclavicle 1.68172e-013 -8.82604e-014
lhumerus 57.0054 -26.5716 97.8098
lradius 25.6331
lwrist 4.57945
lhand 2.50761 56.6501
lfingers 7.12502
lthumb 27.9899 84.583
rfemur -77.8115 -11.4326 27.9476
rtibia 42.5116
rfoot 13.0461 -2.46404
rtoes -10.8332
lfemur -75.002 9.22386 -10.8637
ltibia 88.009
lfoot -21.5422 7.38196
ltoes -5.97276
619
root -14.1194 13.7861 -7.59377 -323.32 -49.1368 -10.6601
lowerback 13.8054 -5.35285 -2.77261
upperback 4.06634 -7.33119 8.77942
thorax -1.80297 -3.88358 12.1416
lowerneck -7.86327 -3.72003 -9.63412
upperneck -24.0967 -2.77228 19.0513
head -5.2955 -2.31126 8.06208
rclavicle 9.14409e-014 -2.18663e-014
rhumerus 20.3388 8.99042 -95.7595
rradius 80.6839
rwrist -26.6199
rhand -35.4525 -11.1876
rfingers 7.12502
rthumb -8.58147 -40.9932
lclavicle 9.14409e-014 -2.18663e-014
lhumerus 57.0858 -26.4205 97.9007
lradius 25.5042
lwrist 4.02481
lhand 1.64656 55.4257
lfingers 7.12502
lthumb 27.1665 83.4902
rfemur -77.5717 -11.3808 27.7574
rtibia 41.9877
rfoot 13.6504 -2.39287
rtoes -11.1903
lfemur -75.2406 8.86748 -10.5838
ltibia 87.5456
lfoot -22.2817 6.26075
ltoes -6.43909
620
root -14.0717 13.7897 -7.57092 -323.365 -49.2478 -10.6202
lowerback 13.7809 -5.12086 -2.75834
upperback 4.34573 -7.0464 8.97319
thorax -1.52817 -3.77322 12.2996
lowerneck -8.50082 -3.98488 -9.87991
upperneck -24.5414 -3.12006 18.8882
head -5.2801 -2.4564 8.05704
rclavicle 9.06458e-014 2.22639e-014
rhumerus 21.1202 8.72227 -95.1776
rradius 80.7257
rwrist -26.5913
rhand -35.2111 -11.2786
rfingers 7.12502
rthumb -8.34854 -41.0936
lclavicle 9.06458e-014 2.22639e-014
lhumerus 58.0332 -26.9904 97.6349
lradius 25.663
lwrist 4.7538
lhand 3.07775 56.0916
lfingers 7.12502
lthumb 28.5348 83.9344
rfemur -77.3492 -11.3653 27.3967
rtibia 41.4733
rfoot 14.1034 -2.15238
rtoes -12.0238
lfemur -75.438 8.45241 -10.4831
ltibia 87.1128
lfoot -22.6224 5.3787
ltoes -7.76673
621
root -14.0232 13.7876 -7.55042 -323.505 -49.3167 -10.3776
lowerback 13.8597 -5.44375 -2.8469
upperback 3.85314 -7.44362 8.65899
thorax -2.04365 -3.91481 12.0851
lowerneck -6.40598 -3.57856 -9.41254
upperneck -24.9974 -2.57257 19.0483
head -5.86454 -2.32184 8.12135
rclavicle -5.36719e-014 2.66371e-014
rhumerus 19.924 8.99145 -96.1556
rradius 80.791
rwrist -26.5069
rhand -35.0008 -11.3287
rfingers 7.12502
rthumb -8.14554 -41.1517
lclavicle -5.36719e-014 2.66371e-014
lhumerus 57.0583 -26.5419 97.5558
lradius 25.535
lwrist 5.06472
lhand -3.08185 51.5126
lfingers 7.12502
lthumb 22.6354 80.2053
rfemur -77.209 -11.3704 26.8277
rtibia 40.9882
rfoot 14.4725 -2.03899
rtoes -11.9735
lfemur -75.753 7.89126 -10.4256
ltibia 86.7231
lfoot -22.9587 4.24699
ltoes -8.42899
